<?xml version="1.0" standalone="no"?>
<!DOCTYPE svg PUBLIC "-//W3C//DTD SVG 20010904//EN"
 "http://www.w3.org/TR/2001/REC-SVG-20010904/DTD/svg10.dtd">
<svg version="1.0" xmlns="http://www.w3.org/2000/svg"
 width="300.000000pt" height="300.000000pt" viewBox="0 0 300.000000 300.000000"
 preserveAspectRatio="xMidYMid meet">
<metadata>
Created by potrace 1.14, written by Peter Selinger 2001-2017
</metadata>
<g transform="translate(0.000000,300.000000) scale(0.100000,-0.100000)"
fill="#000000" stroke="none">
<path d="M1481 2738 c-29 -78 -46 -105 -97 -159 -73 -76 -140 -117 -371 -230
-103 -51 -226 -114 -272 -141 -46 -26 -85 -48 -87 -48 -7 0 -108 -73 -174
-126 -252 -201 -348 -406 -426 -909 -8 -55 -17 -113 -19 -130 -14 -125 -18
-166 -30 -352 -4 -74 -3 -83 12 -84 10 -1 70 0 133 1 339 8 632 2 770 -15 291
-36 477 -122 552 -257 12 -21 24 -38 27 -38 3 0 17 19 31 41 41 67 100 118
185 159 81 39 199 74 290 85 28 3 61 8 75 10 97 16 501 23 790 14 l125 -4 -1
56 c-1 70 -13 256 -18 289 -3 14 -7 54 -11 89 -3 36 -7 67 -9 70 -2 3 -7 34
-10 68 -4 35 -9 68 -11 75 -3 7 -7 27 -9 43 -13 101 -68 306 -108 405 -87 214
-268 394 -563 562 -44 25 -165 86 -268 137 -181 87 -299 156 -342 198 -71 70
-108 127 -120 181 -8 37 -31 43 -44 10z"/>
</g>
</svg>
